<svg fill="white" viewBox="0 0 242.1 124" height="50" class="svg-logo">
  <g>
    <path d="M 22.863 66.617 A 41.023 41.023 0 0 1 22.705 66.822 A 20.582 20.582 0 0 1 19.946 69.751 A 14.157 14.157 0 0 1 16.884 71.797 A 13.31 13.31 0 0 1 16.772 71.851 A 8.213 8.213 0 0 1 13.184 72.657 A 7.919 7.919 0 0 1 10.266 72.132 A 7.323 7.323 0 0 1 8.154 70.85 A 13.575 13.575 0 0 1 5.831 68.231 A 17.71 17.71 0 0 1 4.59 66.114 A 28.449 28.449 0 0 1 3.048 62.351 A 36.264 36.264 0 0 1 2.222 59.448 Q 1.318 55.713 0.83 51.831 A 97.72 97.72 0 0 1 0.219 45.206 A 88.673 88.673 0 0 1 0.171 44.287 A 174.499 174.499 0 0 1 0.054 41.242 Q 0.014 39.85 0.003 38.606 A 99.777 99.777 0 0 1 0 37.793 A 135.734 135.734 0 0 1 0.151 31.476 A 150.927 150.927 0 0 1 0.269 29.297 Q 0.537 24.903 1.123 20.703 A 86.399 86.399 0 0 1 2.18 14.652 A 75.251 75.251 0 0 1 2.612 12.744 A 46.79 46.79 0 0 1 3.534 9.423 Q 4.029 7.878 4.597 6.533 A 28.538 28.538 0 0 1 4.761 6.153 A 19.784 19.784 0 0 1 5.822 4.063 Q 6.42 3.049 7.086 2.252 A 10.594 10.594 0 0 1 7.617 1.66 A 5.907 5.907 0 0 1 8.992 0.589 A 4.654 4.654 0 0 1 11.279 0 Q 12.891 0 14.185 0.757 Q 15.395 1.465 16.242 3.005 A 8.881 8.881 0 0 1 16.357 3.223 A 11.324 11.324 0 0 1 16.984 4.715 Q 17.427 6 17.725 7.666 Q 18.096 9.746 18.185 12.533 A 57.237 57.237 0 0 1 18.213 14.356 A 50.876 50.876 0 0 1 17.536 22.5 A 57.914 57.914 0 0 1 17.188 24.439 A 85.296 85.296 0 0 1 14.404 34.912 A 106.787 106.787 0 0 1 10.254 45.435 A 153.76 153.76 0 0 1 5.127 55.664 Q 5.928 59.734 7.087 62.657 A 20.698 20.698 0 0 0 8.398 65.406 A 10.387 10.387 0 0 0 9.544 67.034 Q 10.271 67.866 11.083 68.336 A 4.413 4.413 0 0 0 13.33 68.946 A 5.176 5.176 0 0 0 15.83 68.283 A 7.408 7.408 0 0 0 17.09 67.407 Q 18.896 65.869 20.41 63.77 Q 21.924 61.67 23.071 59.497 Q 24.219 57.324 24.854 56.006 A 1.871 1.871 0 0 1 25.006 55.749 A 5620.963 5620.963 0 0 1 25.024 47.193 Q 25.049 38.819 25.269 31.616 A 268.484 268.484 0 0 1 25.562 24.756 A 196.887 196.887 0 0 1 26.001 18.579 A 88.25 88.25 0 0 1 26.458 14.443 Q 26.733 12.415 27.087 10.646 A 45.023 45.023 0 0 1 27.539 8.618 Q 28.564 4.492 30.151 2.246 A 6.13 6.13 0 0 1 31.308 0.991 A 4.383 4.383 0 0 1 34.131 0 A 6.209 6.209 0 0 1 35.859 0.231 A 5.002 5.002 0 0 1 37.598 1.123 A 7.422 7.422 0 0 1 39.208 2.919 A 9.673 9.673 0 0 1 39.893 4.175 A 14.746 14.746 0 0 1 40.689 6.403 A 20.027 20.027 0 0 1 41.162 8.667 A 34.781 34.781 0 0 1 41.534 12.837 A 39.815 39.815 0 0 1 41.553 14.063 A 60.601 60.601 0 0 1 40.503 25.366 Q 39.453 30.908 37.695 36.182 Q 35.938 41.455 33.594 46.46 Q 31.25 51.465 28.662 56.201 L 28.662 58.301 L 28.662 60.742 L 28.662 63.037 L 28.662 64.746 L 28.711 67.041 A 72.567 72.567 0 0 1 29.553 65.314 A 94.233 94.233 0 0 1 30.518 63.452 A 125.291 125.291 0 0 1 32.424 60.002 A 138.886 138.886 0 0 1 32.715 59.497 A 81.611 81.611 0 0 1 35.205 55.469 A 48.841 48.841 0 0 1 37.763 51.93 A 44.682 44.682 0 0 1 37.939 51.709 A 13.101 13.101 0 0 1 39.005 50.561 Q 39.589 50.007 40.178 49.613 A 6.764 6.764 0 0 1 40.796 49.243 A 7.456 7.456 0 0 1 41.938 48.753 Q 42.752 48.487 43.506 48.487 A 5.337 5.337 0 0 1 44.626 48.599 A 4.14 4.14 0 0 1 45.728 48.999 Q 46.68 49.512 47.29 50.391 A 6.193 6.193 0 0 1 47.991 51.738 A 7.596 7.596 0 0 1 48.218 52.442 Q 48.535 53.614 48.535 54.981 A 15.486 15.486 0 0 1 48.514 55.757 Q 48.466 56.691 48.315 57.984 A 33.107 33.107 0 0 0 48.103 61.151 A 37.397 37.397 0 0 0 48.096 61.914 A 21.91 21.91 0 0 0 48.218 64.234 A 10.479 10.479 0 0 0 48.389 65.32 A 7.905 7.905 0 0 0 48.657 66.284 Q 48.975 67.188 49.609 67.749 Q 50.244 68.311 51.27 68.311 A 4.458 4.458 0 0 0 52.936 67.978 A 5.699 5.699 0 0 0 53.613 67.652 A 10.101 10.101 0 0 0 55.023 66.685 A 12.824 12.824 0 0 0 55.908 65.894 Q 57.031 64.795 58.057 63.452 A 33.588 33.588 0 0 0 59.702 61.103 A 30.372 30.372 0 0 0 59.912 60.767 A 38.831 38.831 0 0 0 60.873 59.127 A 32.324 32.324 0 0 0 61.377 58.179 A 118.01 118.01 0 0 0 61.679 57.582 Q 62.109 56.726 62.402 56.104 Q 62.837 55.105 63.85 54.994 A 2.409 2.409 0 0 1 64.111 54.981 Q 64.941 54.981 65.43 55.567 A 2.202 2.202 0 0 1 65.776 56.128 A 1.823 1.823 0 0 1 65.918 56.836 A 1.839 1.839 0 0 1 65.771 57.569 Q 65.612 57.888 65.208 58.761 A 209.79 209.79 0 0 0 65.015 59.18 Q 64.585 60.115 63.926 61.278 A 45.968 45.968 0 0 1 63.501 62.012 A 40.346 40.346 0 0 1 62.258 63.977 A 50.273 50.273 0 0 1 61.279 65.381 A 24.369 24.369 0 0 1 58.472 68.628 A 14.862 14.862 0 0 1 55.401 70.933 A 13.9 13.9 0 0 1 55.151 71.07 A 7.82 7.82 0 0 1 51.416 72.022 A 8.684 8.684 0 0 1 49.976 71.909 Q 48.7 71.694 47.803 71.07 A 6.595 6.595 0 0 1 45.679 68.653 A 10.006 10.006 0 0 1 44.818 66.263 A 11.869 11.869 0 0 1 44.653 65.381 A 24.199 24.199 0 0 1 44.389 62.294 A 21.987 21.987 0 0 1 44.385 61.865 A 23.977 23.977 0 0 1 44.413 60.719 A 29.23 29.23 0 0 1 44.458 59.986 A 74.548 74.548 0 0 1 44.629 58.008 A 144.013 144.013 0 0 0 44.72 57.062 A 117.663 117.663 0 0 0 44.8 56.177 A 24.409 24.409 0 0 0 44.844 55.574 Q 44.859 55.338 44.866 55.129 A 11.531 11.531 0 0 0 44.873 54.737 Q 44.873 53.223 44.458 52.686 Q 44.043 52.149 43.506 52.149 A 1.68 1.68 0 0 0 42.903 52.27 Q 42.411 52.459 41.849 52.942 A 6.58 6.58 0 0 0 41.724 53.052 A 12.724 12.724 0 0 0 40.862 53.914 Q 40.447 54.367 40.018 54.909 A 24.016 24.016 0 0 0 39.624 55.42 A 34.871 34.871 0 0 0 38.388 57.184 A 43.898 43.898 0 0 0 37.427 58.716 A 174.17 174.17 0 0 0 35.303 62.354 Q 34.277 64.16 33.447 65.796 A 824.428 824.428 0 0 0 33.051 66.579 Q 32.483 67.7 32.08 68.506 A 13.48 13.48 0 0 1 31.501 69.553 Q 30.759 70.756 30.005 71.265 A 5.564 5.564 0 0 1 29.37 71.638 Q 28.696 71.973 28.125 71.973 Q 26.626 71.973 25.821 70.8 A 3.293 3.293 0 0 1 25.806 70.777 Q 25 69.58 25 67.871 L 25 64.795 A 6502.397 6502.397 0 0 1 25 63.525 A 37.44 37.44 0 0 1 22.863 66.617 Z M 3.711 38.037 A 121.998 121.998 0 0 0 3.793 42.588 A 108.129 108.129 0 0 0 3.857 44.043 Q 4.004 46.924 4.248 49.561 A 106.366 106.366 0 0 0 7.214 43.34 A 120.375 120.375 0 0 0 8.154 41.138 A 103.429 103.429 0 0 0 11.426 32.105 Q 12.842 27.539 13.696 23.023 A 49.23 49.23 0 0 0 14.45 17.273 A 41.551 41.551 0 0 0 14.551 14.405 Q 14.551 9.972 14.002 7.476 A 9.91 9.91 0 0 0 13.623 6.153 A 7.386 7.386 0 0 0 13.187 5.182 Q 12.571 4.058 11.743 3.766 A 1.815 1.815 0 0 0 11.133 3.662 Q 10.143 3.662 9.222 4.981 A 6.608 6.608 0 0 0 9.155 5.078 A 11.087 11.087 0 0 0 8.472 6.257 Q 8.15 6.895 7.842 7.663 A 25.597 25.597 0 0 0 7.373 8.936 A 38.309 38.309 0 0 0 6.675 11.24 Q 6.244 12.83 5.859 14.698 A 82.5 82.5 0 0 0 5.091 19.039 A 99.273 99.273 0 0 0 4.712 21.826 A 137.207 137.207 0 0 0 4.126 27.732 A 154.776 154.776 0 0 0 3.979 29.785 A 127.769 127.769 0 0 0 3.711 38.037 Z M 28.711 49.024 Q 30.762 44.532 32.446 40.259 A 88.999 88.999 0 0 0 35.327 31.739 Q 36.523 27.49 37.207 23.12 A 58.113 58.113 0 0 0 37.88 15.192 A 64.694 64.694 0 0 0 37.891 14.014 Q 37.891 13.262 37.823 11.65 A 168.917 168.917 0 0 0 37.817 11.524 A 21.494 21.494 0 0 0 37.378 8.057 A 11.761 11.761 0 0 0 36.883 6.325 A 9.14 9.14 0 0 0 36.255 4.981 A 3.048 3.048 0 0 0 35.707 4.271 A 2.216 2.216 0 0 0 34.131 3.662 A 1.616 1.616 0 0 0 33.087 4.057 Q 32.833 4.265 32.601 4.582 A 4.614 4.614 0 0 0 32.275 5.103 A 10.549 10.549 0 0 0 31.739 6.271 Q 31.511 6.85 31.304 7.535 A 24.982 24.982 0 0 0 30.908 9.009 A 41.126 41.126 0 0 0 30.433 11.321 Q 30.151 12.906 29.932 14.746 Q 29.541 18.018 29.297 21.68 A 215.606 215.606 0 0 0 28.931 29.199 Q 28.809 33.057 28.76 36.695 A 563.626 563.626 0 0 0 28.723 40.216 A 459.374 459.374 0 0 0 28.711 43.506 L 28.711 49.024 Z"></path>
  </g>
  </svg>