<svg width="123.492" height="95.601" viewBox="0 0 123.492 95.601" xmlns="http://www.w3.org/2000/svg"><g id="svgGroup" stroke-linecap="round" fill-rule="nonzero" font-size="9pt" stroke="#ffffff" stroke-width="0.25mm" fill="#ffffff" style="stroke:#ffffff;stroke-width:0.25mm;fill:#ffffff"><path d="M 28.969 78.601 Q 28.169 81.301 27.619 84.201 Q 27.069 87.101 27.469 89.651 A 8.375 8.375 0 0 0 27.483 89.74 A 6.647 6.647 0 0 0 29.719 93.801 A 4.646 4.646 0 0 0 29.724 93.806 Q 31.053 94.951 33.437 95.274 A 15.184 15.184 0 0 0 35.469 95.401 A 14.767 14.767 0 0 0 36.333 95.376 A 12.243 12.243 0 0 0 41.063 94.17 A 3.871 3.871 0 0 0 41.269 94.451 Q 42.169 95.601 44.069 95.601 A 8.943 8.943 0 0 0 45.179 95.53 Q 46.42 95.375 47.744 94.878 A 16.625 16.625 0 0 0 50.119 93.751 Q 53.369 91.901 57.519 87.551 A 91.973 91.973 0 0 0 60.409 84.362 Q 61.937 82.601 63.633 80.506 A 222.082 222.082 0 0 0 67.369 75.751 Q 70.931 71.094 75.314 64.973 A 739.314 739.314 0 0 0 80.869 57.101 A 6.306 6.306 0 0 0 81.123 56.711 Q 81.716 55.725 81.716 54.825 A 2.665 2.665 0 0 0 81.569 53.951 Q 81.069 52.501 79.719 52.151 A 2.112 2.112 0 0 0 79.688 52.143 Q 78.65 51.89 77.76 52.796 A 4.491 4.491 0 0 0 77.269 53.401 Q 72.831 59.401 69.136 64.268 A 646.739 646.739 0 0 1 64.969 69.701 Q 61.637 73.993 58.86 77.198 A 95.813 95.813 0 0 1 55.919 80.451 A 74.653 74.653 0 0 1 55.224 81.172 Q 52.986 83.464 51.121 84.956 A 22.25 22.25 0 0 1 49.333 86.258 A 16.089 16.089 0 0 0 49.369 86.201 A 4.34 4.34 0 0 0 49.586 85.619 Q 49.726 85.139 49.726 84.68 A 2.948 2.948 0 0 0 49.669 84.101 A 1.605 1.605 0 0 0 49.517 83.679 Q 49.235 83.132 48.504 82.585 A 8.005 8.005 0 0 0 47.769 82.101 A 7.199 7.199 0 0 0 47.583 81.976 Q 46.637 81.364 45.942 81.364 A 1.41 1.41 0 0 0 45.619 81.401 Q 44.769 81.601 44.069 82.601 A 45.832 45.832 0 0 1 43.139 83.727 A 36.919 36.919 0 0 1 41.719 85.301 A 15.805 15.805 0 0 1 41.647 85.375 Q 40.533 86.523 39.419 87.201 A 5.316 5.316 0 0 1 38.492 87.654 A 3.816 3.816 0 0 1 37.169 87.901 A 2.539 2.539 0 0 1 37.16 87.901 Q 36.903 87.9 36.687 87.847 A 1.28 1.28 0 0 1 35.969 87.401 Q 35.616 86.96 35.652 86.092 A 4.512 4.512 0 0 1 35.669 85.851 A 5.911 5.911 0 0 1 35.669 85.845 Q 35.738 85.125 35.995 84.147 A 21.43 21.43 0 0 1 36.269 83.201 L 55.969 22.301 Q 57.277 18.376 58.395 15.708 A 39.697 39.697 0 0 1 59.369 13.551 Q 60.869 10.501 62.219 9.301 A 6.731 6.731 0 0 1 62.397 9.148 Q 63.661 8.101 64.969 8.101 A 3.694 3.694 0 0 1 65.764 8.182 A 2.488 2.488 0 0 1 67.019 8.851 A 3.693 3.693 0 0 1 67.688 9.775 A 4.724 4.724 0 0 1 68.069 10.801 Q 68.237 11.476 68.311 12.277 A 14.454 14.454 0 0 1 68.369 13.601 A 2.457 2.457 0 0 1 68.559 12.614 Q 68.857 11.927 69.619 11.501 A 5.348 5.348 0 0 1 71.267 10.918 A 7.394 7.394 0 0 1 72.619 10.801 A 7.316 7.316 0 0 1 74.054 10.935 A 5.311 5.311 0 0 1 75.619 11.501 A 2.629 2.629 0 0 1 76.352 12.091 Q 76.816 12.639 76.863 13.421 A 2.989 2.989 0 0 1 76.869 13.601 Q 76.869 17.913 75.243 23.017 A 44.862 44.862 0 0 1 75.019 23.701 Q 73.169 29.201 69.819 35.151 A 112.25 112.25 0 0 1 64.409 43.781 A 131.398 131.398 0 0 1 61.969 47.201 Q 57.469 53.301 52.319 59.251 Q 47.169 65.201 41.619 70.551 A 214.635 214.635 0 0 1 32.288 79.045 A 192.516 192.516 0 0 1 30.569 80.501 A 130.544 130.544 0 0 1 24.492 85.296 A 104.177 104.177 0 0 1 19.919 88.501 A 73.694 73.694 0 0 1 15.556 91.179 Q 13.352 92.423 11.305 93.343 A 41.783 41.783 0 0 1 10.369 93.751 A 30.054 30.054 0 0 1 7.485 94.804 Q 6.054 95.24 4.778 95.437 A 13.165 13.165 0 0 1 2.769 95.601 A 4.819 4.819 0 0 1 1.915 95.531 Q 1.472 95.451 1.137 95.279 A 1.775 1.775 0 0 1 0.319 94.451 A 3.276 3.276 0 0 1 0 93.019 Q 0 92.461 0.169 91.851 A 5.481 5.481 0 0 1 1.347 89.693 A 6.757 6.757 0 0 1 1.769 89.251 Q 2.969 88.101 4.669 88.101 A 9.699 9.699 0 0 0 6.607 87.888 Q 7.535 87.698 8.575 87.338 A 24.416 24.416 0 0 0 10.769 86.451 A 41.965 41.965 0 0 0 14.06 84.75 Q 16.271 83.489 18.719 81.801 Q 23.069 78.801 27.819 74.701 A 173.381 173.381 0 0 0 35 68.129 A 198.08 198.08 0 0 0 37.419 65.751 Q 42.269 60.901 46.819 55.551 Q 51.369 50.201 55.219 44.701 A 111.17 111.17 0 0 0 61.075 35.419 A 99.819 99.819 0 0 0 62.019 33.701 A 75.156 75.156 0 0 0 64.942 27.64 A 60.052 60.052 0 0 0 66.669 23.101 A 35.583 35.583 0 0 0 67.889 18.473 A 26.205 26.205 0 0 0 68.369 13.601 Q 68.369 15.501 69.619 16.401 A 4.608 4.608 0 0 0 71.088 17.103 A 5.689 5.689 0 0 0 72.619 17.301 A 6.185 6.185 0 0 0 73.411 17.251 A 4.754 4.754 0 0 0 75.619 16.401 A 2.879 2.879 0 0 0 76.746 14.691 A 4.559 4.559 0 0 0 76.869 13.601 A 20.614 20.614 0 0 0 76.646 10.507 A 15.463 15.463 0 0 0 75.519 6.551 A 14.058 14.058 0 0 0 74.68 4.938 A 11.112 11.112 0 0 0 71.819 1.751 A 8.583 8.583 0 0 0 69.386 0.48 A 9.822 9.822 0 0 0 66.269 0.001 A 13.438 13.438 0 0 0 59.863 1.551 A 15.305 15.305 0 0 0 55.669 4.901 A 20.059 20.059 0 0 0 55.021 5.66 Q 52.295 9.017 49.926 14.708 A 77.663 77.663 0 0 0 47.769 20.601 L 28.969 78.601 Z M 63.969 92.101 Q 63.369 94.001 64.769 94.701 Q 66.169 95.401 67.769 95.401 Q 70.069 95.401 71.069 94.751 A 3.168 3.168 0 0 0 72.004 93.814 A 3.992 3.992 0 0 0 72.469 92.801 L 84.669 55.301 Q 89.169 51.401 93.069 47.801 A 179.86 179.86 0 0 0 95.895 45.136 A 146.851 146.851 0 0 0 100.169 40.851 Q 103.369 37.501 105.969 34.301 A 88.941 88.941 0 0 0 108.119 31.549 A 70.678 70.678 0 0 0 110.519 28.151 A 50.393 50.393 0 0 0 111.89 25.959 A 41.071 41.071 0 0 0 113.769 22.401 A 33.94 33.94 0 0 0 114.552 20.579 A 28.111 28.111 0 0 0 115.719 16.951 A 24.19 24.19 0 0 0 116.089 15.158 A 19.846 19.846 0 0 0 116.369 11.901 Q 116.369 8.301 114.969 5.651 Q 113.569 3.001 111.219 1.501 A 9.203 9.203 0 0 0 108.566 0.352 A 11.472 11.472 0 0 0 105.669 0.001 A 13.438 13.438 0 0 0 99.263 1.551 A 15.305 15.305 0 0 0 95.069 4.901 A 20.059 20.059 0 0 0 94.421 5.66 Q 91.695 9.017 89.326 14.708 A 77.663 77.663 0 0 0 87.169 20.601 L 63.969 92.101 Z M 95.369 22.501 Q 96.682 18.491 97.781 15.771 A 44.497 44.497 0 0 1 98.719 13.601 A 29.022 29.022 0 0 1 99.165 12.686 Q 100.378 10.315 101.519 9.301 A 5.507 5.507 0 0 1 102.399 8.655 A 3.858 3.858 0 0 1 104.369 8.101 Q 105.569 8.101 106.319 8.651 A 3.131 3.131 0 0 1 107.008 9.35 A 3.961 3.961 0 0 1 107.469 10.201 A 5.402 5.402 0 0 1 107.781 11.348 A 7.221 7.221 0 0 1 107.869 12.501 A 17.306 17.306 0 0 1 107.778 14.248 A 21.312 21.312 0 0 1 107.319 16.951 A 23.724 23.724 0 0 1 106.722 19.045 A 29.615 29.615 0 0 1 105.619 21.851 A 40.812 40.812 0 0 1 104.593 23.956 A 50.738 50.738 0 0 1 102.769 27.151 A 64.574 64.574 0 0 1 101.423 29.234 A 77.183 77.183 0 0 1 98.869 32.801 A 74.756 74.756 0 0 1 97.141 34.99 A 88.41 88.41 0 0 1 93.919 38.701 Q 91.169 41.701 88.069 44.901 L 95.369 22.501 Z M 102.669 78.601 Q 101.769 81.301 101.269 84.201 Q 100.769 87.101 101.169 89.651 Q 101.569 92.201 103.469 93.801 Q 104.804 94.926 107.08 95.26 A 14.419 14.419 0 0 0 109.169 95.401 Q 112.669 95.401 115.469 93.801 A 20.483 20.483 0 0 0 116.323 93.285 A 17.735 17.735 0 0 0 120.219 89.951 A 55.141 55.141 0 0 0 120.586 89.523 Q 122.256 87.556 123.069 86.201 A 3.809 3.809 0 0 0 123.347 85.566 Q 123.595 84.808 123.419 84.101 A 1.789 1.789 0 0 0 123.296 83.763 Q 122.898 82.932 121.569 82.101 A 7.199 7.199 0 0 0 121.383 81.976 Q 120.437 81.364 119.742 81.364 A 1.41 1.41 0 0 0 119.419 81.401 A 2.16 2.16 0 0 0 118.858 81.623 Q 118.563 81.788 118.273 82.054 A 4.896 4.896 0 0 0 117.769 82.601 A 45.832 45.832 0 0 1 116.839 83.727 A 36.919 36.919 0 0 1 115.419 85.301 Q 114.808 85.938 114.211 86.435 A 10.203 10.203 0 0 1 113.169 87.201 A 5 5 0 0 1 112.412 87.599 A 3.721 3.721 0 0 1 110.969 87.901 Q 110.554 87.901 110.245 87.794 A 1.231 1.231 0 0 1 109.669 87.401 Q 109.316 86.96 109.352 86.092 A 4.512 4.512 0 0 1 109.369 85.851 Q 109.437 85.129 109.695 84.1 A 25.614 25.614 0 0 1 109.969 83.101 L 117.069 62.101 A 45.571 45.571 0 0 0 117.824 59.697 Q 118.967 55.659 118.967 52.472 A 16.394 16.394 0 0 0 118.919 51.201 Q 118.569 46.701 115.969 44.351 A 7.842 7.842 0 0 0 114.043 43.08 Q 111.757 42.001 108.369 42.001 A 18.611 18.611 0 0 0 104.635 42.381 A 21.559 21.559 0 0 0 99.219 44.301 A 29.178 29.178 0 0 0 94.441 47.365 A 39.927 39.927 0 0 0 90.319 51.101 Q 85.969 55.601 81.969 62.001 Q 77.969 68.401 74.569 76.601 L 75.169 84.201 A 116.678 116.678 0 0 1 77.02 80.081 A 99.474 99.474 0 0 1 82.219 70.451 A 95.45 95.45 0 0 1 85.861 64.954 A 72.196 72.196 0 0 1 90.069 59.601 A 53.966 53.966 0 0 1 91.16 58.382 Q 92.795 56.613 94.414 55.198 A 30.079 30.079 0 0 1 97.969 52.501 Q 100.101 51.134 102.055 50.514 A 10.287 10.287 0 0 1 105.169 50.001 Q 106.831 50.001 107.912 50.441 A 3.304 3.304 0 0 1 109.119 51.251 Q 110.269 52.501 110.219 54.651 Q 110.169 56.801 109.169 59.501 L 102.669 78.601 Z" vector-effect="non-scaling-stroke"/></g></svg>