<svg xmlns="http://www.w3.org/2000/svg" 
     width="100" 
     height="100" 
     fill="none" 
     viewBox="0 0 100 100">
  <style>
    @keyframes draw {
      0% { 
        stroke-dashoffset: 4000px; 
        opacity: 0;
      }
      10% { 
        opacity: 1; 
      }
      90% { 
        stroke-dashoffset: 0; 
      }
      100% { 
        stroke-dashoffset: 0; 
      }
    }
    
    @media (prefers-reduced-motion) {
      .path1 {
        animation: none !important;
        stroke-dasharray: unset !important;
        stroke-dashoffset: 0 !important;
      }
    }
    
    .path1 {
      stroke-dasharray: 4000px;
      stroke-dashoffset: 4000px;
      animation: draw 1s ease-in-out forwards infinite;
      transform-origin: center;
      stroke: #303030;
      animation-delay: 0s;
    }
    
    @media (prefers-color-scheme: dark) {
      .path1 {
        stroke: #fdfdfd;
      }
    }
  </style>
  
  <g transform="translate(50, 50) scale(0.12) translate(-330, -330)">
    <path stroke="#000" 
      stroke-linecap="round" 
      stroke-width="36" 
      d="M29.6213 1C34.5129 72.0142 31.1308 212.211 29.6213 251C27.7345 299.487 27.3145 403.953 16.8335 518C8.44869 609.237 10.5 598.598 4 644.402C0.263286 670.734 11.9697 704.885 30.8484 675.885C49.7271 646.885 64.6486 576.867 81 505.5C90.7376 463 87.6192 470.569 106 418C120.86 375.5 140 370.5 151.492 442.465L171.709 597.754L178.978 644.402C186.439 654.781 205.406 664.996 221.587 622.822C237.769 580.648 260.581 504.726 269.965 482.828C277 454.48 301.717 439.53 308.141 474.47C323.5 558 324.555 572.307 327 587.515C328.956 599.681 333.634 639.749 335.54 643.557C344.648 651.88 365.244 658.867 374.762 620.237C384.28 581.606 423.445 357.061 441.838 261.277C445.464 247.664 453.482 219.488 456.554 215.693C460.394 210.949 476.928 192.535 489.555 227C500.649 257.281 490.933 479.066 489.555 582.388C494.97 598.137 503.726 606.235 511.481 569.887C519.235 533.539 518.534 510.234 527.63 482.3C532.523 467.272 550.43 435.777 582.911 430.029C615.391 424.281 638.409 443.934 645.858 454.48C650.528 464.162 669.67 490.5 659 531.5C644.422 587.515 621.5 587.515 621.5 587.515C621.5 587.515 599 600.744 562.876 587.515C545.283 581.072 531.089 550.766 527.63 540.5"
      class="path1"
      fill="none"/>
  </g>
</svg>