<svg viewBox="0 0 242.1 124" height="50" class="svg-logo">
	<style>
		:root {
			--stroke-theme: black;
			--animation-duration: 8s;
			--stroke-dashoffset: 2000;
			--stroke-width:2px;
		}
		@keyframes drawSignature {
			{
				stroke-dashoffset: var(--stroke-dashoffset);
			}
			15% {
				fill: transparent;
			}
			35%,
			75% {
				stroke-dashoffset: 0;
				fill: var(--stroke-theme);
			}
			90%,
			to {
				stroke-dashoffset: var(--stroke-dashoffset);
				fill: transparent;
			}
		}

		.svg-logo {
			display: block;
			vertical-align: middle;
			transform: translate(20px, 20px);
		}

		path {
			stroke-dasharray: var(--stroke-dashoffset);
			stroke-dashoffset: var(--stroke-dashoffset);
			fill: transparent;
			animation: drawSignature var(--animation-duration) cubic-bezier(0.4, 0, 0.2, 1)
				infinite;
			stroke-width: var(--stroke-width);
			stroke: var(--stroke-theme);
		}
		</style>
  <g>
    <path d="M 25 63.526 A 37.44 37.44 0 0 1 22.863 66.617 A 41.023 41.023 0 0 1 22.705 66.822 A 20.582 20.582 0 0 1 19.946 69.751 A 14.157 14.157 0 0 1 16.884 71.797 A 13.31 13.31 0 0 1 16.772 71.851 A 8.213 8.213 0 0 1 13.184 72.657 A 7.919 7.919 0 0 1 10.266 72.132 A 7.323 7.323 0 0 1 8.154 70.85 A 13.575 13.575 0 0 1 5.831 68.231 A 17.71 17.71 0 0 1 4.59 66.114 A 28.449 28.449 0 0 1 3.048 62.351 A 36.264 36.264 0 0 1 2.222 59.448 Q 1.318 55.713 0.83 51.831 A 97.72 97.72 0 0 1 0.219 45.206 A 88.673 88.673 0 0 1 0.171 44.287 A 174.499 174.499 0 0 1 0.054 41.242 Q 0.014 39.85 0.003 38.606 A 99.777 99.777 0 0 1 0 37.793 A 135.734 135.734 0 0 1 0.151 31.476 A 150.927 150.927 0 0 1 0.269 29.297 Q 0.537 24.903 1.123 20.703 A 86.399 86.399 0 0 1 2.18 14.652 A 75.251 75.251 0 0 1 2.612 12.744 A 46.79 46.79 0 0 1 3.534 9.423 Q 4.029 7.878 4.597 6.533 A 28.538 28.538 0 0 1 4.761 6.153 A 19.784 19.784 0 0 1 5.822 4.063 Q 6.42 3.049 7.086 2.252 A 10.594 10.594 0 0 1 7.617 1.66 A 5.907 5.907 0 0 1 8.992 0.589 A 4.654 4.654 0 0 1 11.279 0 Q 12.891 0 14.185 0.757 Q 15.395 1.465 16.242 3.005 A 8.881 8.881 0 0 1 16.357 3.223 A 11.324 11.324 0 0 1 16.984 4.715 Q 17.427 6 17.725 7.666 Q 18.096 9.746 18.185 12.533 A 57.237 57.237 0 0 1 18.213 14.356 A 50.876 50.876 0 0 1 17.536 22.5 A 57.914 57.914 0 0 1 17.188 24.439 A 85.296 85.296 0 0 1 14.404 34.912 A 106.787 106.787 0 0 1 10.254 45.435 A 153.76 153.76 0 0 1 5.127 55.664 Q 5.928 59.734 7.087 62.657 A 20.698 20.698 0 0 0 8.398 65.406 A 10.387 10.387 0 0 0 9.544 67.034 Q 10.271 67.866 11.083 68.336 A 4.413 4.413 0 0 0 13.33 68.946 A 5.176 5.176 0 0 0 15.83 68.283 A 7.408 7.408 0 0 0 17.09 67.407 Q 18.896 65.869 20.41 63.77 Q 21.924 61.67 23.071 59.497 Q 24.219 57.324 24.854 56.006 A 1.871 1.871 0 0 1 25.052 55.687 A 112.1 112.1 0 0 1 25.781 47.461 Q 25.879 46.778 26.392 46.265 A 1.725 1.725 0 0 1 27.404 45.774 A 2.399 2.399 0 0 1 27.734 45.752 A 1.54 1.54 0 0 1 28.885 46.238 A 1.932 1.932 0 0 1 28.955 46.314 A 1.914 1.914 0 0 1 29.443 47.608 A 3.592 3.592 0 0 1 29.439 47.759 Q 29.42 48.175 29.321 49.365 Q 29.237 50.373 29.13 51.645 A 4937.162 4937.162 0 0 1 29.028 52.857 Q 28.857 54.883 28.735 57.154 A 89.207 89.207 0 0 0 28.644 59.333 A 68.393 68.393 0 0 0 28.613 61.328 A 21.689 21.689 0 0 0 28.663 62.848 Q 28.718 63.63 28.834 64.294 A 8.927 8.927 0 0 0 29.126 65.503 A 9.227 9.227 0 0 0 29.542 66.573 Q 29.935 67.413 30.444 67.969 A 5.069 5.069 0 0 0 31.115 68.586 Q 31.554 68.919 32.02 69.094 A 3.105 3.105 0 0 0 32.153 69.141 A 6.132 6.132 0 0 0 33.173 69.382 A 5.017 5.017 0 0 0 33.887 69.434 A 4.304 4.304 0 0 0 35.389 69.15 Q 35.941 68.945 36.508 68.593 A 7.868 7.868 0 0 0 36.719 68.457 A 12.258 12.258 0 0 0 38.015 67.453 Q 38.857 66.712 39.722 65.723 Q 41.211 64.021 42.723 61.655 A 47.112 47.112 0 0 0 42.822 61.499 A 57.077 57.077 0 0 0 44.661 58.373 A 71.218 71.218 0 0 0 45.718 56.365 A 2.484 2.484 0 0 1 45.801 56.104 A 62.985 62.985 0 0 1 47.082 53.245 Q 48.571 50.147 49.927 48.413 A 10.22 10.22 0 0 1 50.92 47.306 Q 52.346 45.948 53.76 45.948 A 3.74 3.74 0 0 1 54.677 46.055 A 2.882 2.882 0 0 1 55.664 46.509 A 3.938 3.938 0 0 1 56.804 47.8 A 4.671 4.671 0 0 1 56.909 47.998 A 7.701 7.701 0 0 1 57.468 49.5 A 9.025 9.025 0 0 1 57.593 50.049 Q 57.813 51.172 57.813 52.344 Q 57.813 53.207 57.695 55.011 A 118.802 118.802 0 0 1 57.69 55.078 A 138.904 138.904 0 0 1 57.55 57.001 A 170.62 170.62 0 0 1 57.373 59.058 A 404.549 404.549 0 0 0 57.007 63.282 A 251.754 251.754 0 0 1 56.923 64.289 Q 56.801 65.712 56.693 66.763 A 85.426 85.426 0 0 1 56.689 66.797 A 92.616 92.616 0 0 1 57.532 65.106 A 124.703 124.703 0 0 1 58.496 63.257 A 96.816 96.816 0 0 1 60.693 59.351 Q 61.865 57.373 63.159 55.42 A 49.41 49.41 0 0 1 65.869 51.709 A 13.101 13.101 0 0 1 66.935 50.561 Q 67.519 50.007 68.108 49.613 A 6.764 6.764 0 0 1 68.726 49.243 A 7.456 7.456 0 0 1 69.868 48.753 Q 70.682 48.487 71.436 48.487 A 5.477 5.477 0 0 1 72.96 48.686 A 3.895 3.895 0 0 1 75.195 50.342 A 7.198 7.198 0 0 1 76.215 52.855 A 10.163 10.163 0 0 1 76.416 54.932 A 13.825 13.825 0 0 1 76.406 55.446 Q 76.389 55.905 76.343 56.47 A 183.804 183.804 0 0 0 76.27 57.404 A 222.015 222.015 0 0 0 76.196 58.399 Q 76.123 59.424 76.05 60.474 A 30.58 30.58 0 0 0 75.987 61.738 A 25.291 25.291 0 0 0 75.977 62.451 A 20.51 20.51 0 0 0 76.045 64.154 A 18.19 18.19 0 0 0 76.099 64.698 A 8.039 8.039 0 0 0 76.261 65.646 Q 76.379 66.142 76.557 66.564 A 4.959 4.959 0 0 0 76.562 66.577 A 3.23 3.23 0 0 0 77.023 67.356 A 2.752 2.752 0 0 0 77.539 67.847 A 2.281 2.281 0 0 0 78.324 68.209 Q 78.645 68.292 79.022 68.307 A 4.312 4.312 0 0 0 79.199 68.311 A 5.055 5.055 0 0 0 81.535 67.721 A 7.27 7.27 0 0 0 82.813 66.87 A 19.257 19.257 0 0 0 85.486 64.182 A 22.122 22.122 0 0 0 86.06 63.452 A 31.435 31.435 0 0 0 88.438 59.808 A 28.781 28.781 0 0 0 88.647 59.424 A 70.342 70.342 0 0 0 89.279 58.219 Q 89.872 57.059 90.233 56.221 A 18.709 18.709 0 0 0 90.283 56.104 A 1.967 1.967 0 0 1 90.485 55.753 A 5620.963 5620.963 0 0 1 90.503 47.193 Q 90.527 38.819 90.747 31.616 A 268.484 268.484 0 0 1 91.04 24.756 A 196.887 196.887 0 0 1 91.479 18.579 A 88.25 88.25 0 0 1 91.936 14.443 Q 92.211 12.415 92.565 10.646 A 45.023 45.023 0 0 1 93.018 8.618 Q 94.043 4.492 95.63 2.246 A 6.13 6.13 0 0 1 96.787 0.991 A 4.383 4.383 0 0 1 99.609 0 A 6.209 6.209 0 0 1 101.338 0.231 A 5.002 5.002 0 0 1 103.076 1.123 A 7.422 7.422 0 0 1 104.687 2.919 A 9.673 9.673 0 0 1 105.371 4.175 A 14.746 14.746 0 0 1 106.167 6.403 A 20.027 20.027 0 0 1 106.641 8.667 A 34.781 34.781 0 0 1 107.013 12.837 A 39.815 39.815 0 0 1 107.031 14.063 A 60.601 60.601 0 0 1 105.981 25.366 Q 104.932 30.908 103.174 36.182 Q 101.416 41.455 99.072 46.46 Q 96.729 51.465 94.141 56.201 L 94.141 58.301 L 94.141 60.742 L 94.141 63.037 L 94.141 64.746 L 94.189 67.041 A 72.567 72.567 0 0 1 95.032 65.314 A 94.233 94.233 0 0 1 95.996 63.452 A 125.291 125.291 0 0 1 97.903 60.002 A 138.886 138.886 0 0 1 98.193 59.497 A 81.611 81.611 0 0 1 100.684 55.469 A 48.841 48.841 0 0 1 103.241 51.93 A 44.682 44.682 0 0 1 103.418 51.709 A 13.101 13.101 0 0 1 104.483 50.561 Q 105.068 50.007 105.657 49.613 A 6.764 6.764 0 0 1 106.274 49.243 A 7.456 7.456 0 0 1 107.417 48.753 Q 108.231 48.487 108.984 48.487 A 5.337 5.337 0 0 1 110.105 48.599 A 4.14 4.14 0 0 1 111.206 48.999 Q 112.158 49.512 112.769 50.391 A 6.193 6.193 0 0 1 113.469 51.738 A 7.596 7.596 0 0 1 113.696 52.442 Q 114.014 53.614 114.014 54.981 A 15.486 15.486 0 0 1 113.992 55.757 Q 113.945 56.691 113.794 57.984 A 33.107 33.107 0 0 0 113.582 61.151 A 37.397 37.397 0 0 0 113.574 61.914 A 21.91 21.91 0 0 0 113.696 64.234 A 10.479 10.479 0 0 0 113.867 65.32 A 7.905 7.905 0 0 0 114.136 66.284 Q 114.453 67.188 115.088 67.749 Q 115.723 68.311 116.748 68.311 A 4.458 4.458 0 0 0 118.414 67.978 A 5.699 5.699 0 0 0 119.092 67.652 A 10.101 10.101 0 0 0 120.502 66.685 A 12.824 12.824 0 0 0 121.387 65.894 Q 122.51 64.795 123.535 63.452 A 33.588 33.588 0 0 0 125.18 61.103 A 30.372 30.372 0 0 0 125.391 60.767 A 38.831 38.831 0 0 0 126.352 59.127 A 32.324 32.324 0 0 0 126.855 58.179 A 118.01 118.01 0 0 0 127.158 57.582 Q 127.588 56.726 127.881 56.104 A 2.059 2.059 0 0 1 128.277 55.491 A 1.656 1.656 0 0 1 128.801 55.128 A 16.963 16.963 0 0 1 129.976 53.21 A 14.001 14.001 0 0 1 131.592 51.319 Q 133.594 49.365 136.011 48.389 A 13.892 13.892 0 0 1 138.531 47.627 A 11.083 11.083 0 0 1 140.674 47.412 A 9.649 9.649 0 0 1 142.385 47.559 A 8.016 8.016 0 0 1 143.457 47.827 Q 144.548 48.184 145.369 48.595 A 9.375 9.375 0 0 1 145.63 48.731 Q 146.523 49.214 147.011 49.625 A 3.846 3.846 0 0 1 147.021 49.634 A 123.791 123.791 0 0 1 147.137 49.732 Q 147.516 50.055 147.559 50.098 A 2.555 2.555 0 0 1 147.894 50.596 A 1.803 1.803 0 0 1 148.096 51.416 A 1.807 1.807 0 0 1 147.594 52.673 A 2.349 2.349 0 0 1 147.559 52.71 Q 147.021 53.272 146.289 53.272 A 1.872 1.872 0 0 1 145.513 53.113 A 1.819 1.819 0 0 1 144.971 52.735 Q 144.891 52.655 144.648 52.461 A 18.894 18.894 0 0 0 144.531 52.368 A 3.702 3.702 0 0 0 144.247 52.168 Q 143.974 51.992 143.604 51.807 Q 143.059 51.535 142.325 51.326 A 10.598 10.598 0 0 0 142.212 51.294 A 5.976 5.976 0 0 0 141.351 51.129 Q 140.908 51.076 140.413 51.075 A 9.53 9.53 0 0 0 140.381 51.074 Q 138.867 51.074 137.158 51.758 A 8.869 8.869 0 0 0 134.575 53.369 A 10.551 10.551 0 0 0 134.033 53.882 A 10.848 10.848 0 0 0 132.462 55.939 A 13.977 13.977 0 0 0 131.665 57.495 A 10.869 10.869 0 0 0 130.926 60.011 Q 130.727 61.157 130.714 62.461 A 18.4 18.4 0 0 0 130.713 62.647 A 9.337 9.337 0 0 0 130.908 64.527 A 5.232 5.232 0 0 0 131.558 66.205 A 5.006 5.006 0 0 0 131.592 66.26 Q 132.08 67.041 132.91 67.53 A 3.378 3.378 0 0 0 133.902 67.911 Q 134.328 68.004 134.819 68.016 A 5.935 5.935 0 0 0 134.961 68.018 Q 135.84 68.018 136.987 67.432 A 6.296 6.296 0 0 0 138.17 66.637 Q 138.656 66.229 139.122 65.697 A 10.503 10.503 0 0 0 139.185 65.625 Q 140.168 64.482 140.98 62.782 A 18.414 18.414 0 0 0 141.089 62.549 Q 141.89 60.81 142.24 58.469 A 21.42 21.42 0 0 0 142.285 58.155 Q 142.383 57.471 142.92 57.007 Q 143.457 56.543 144.189 56.543 A 1.575 1.575 0 0 1 145.288 56.984 A 2.121 2.121 0 0 1 145.386 57.08 A 2.107 2.107 0 0 1 145.782 57.654 A 1.851 1.851 0 0 1 145.947 58.301 Q 145.985 59.011 146.079 60.165 A 153.047 153.047 0 0 0 146.143 60.913 A 16.008 16.008 0 0 0 146.802 64.258 A 8.522 8.522 0 0 0 147.742 66.322 A 7.602 7.602 0 0 0 148.34 67.139 A 3.351 3.351 0 0 0 150.574 68.324 A 4.803 4.803 0 0 0 151.172 68.36 A 4.554 4.554 0 0 0 152.97 67.98 A 5.649 5.649 0 0 0 153.491 67.725 A 10.066 10.066 0 0 0 154.906 66.769 A 12.624 12.624 0 0 0 155.737 66.04 A 18.337 18.337 0 0 0 157.33 64.301 A 21.288 21.288 0 0 0 157.837 63.648 A 34.46 34.46 0 0 0 159.668 60.938 A 39.433 39.433 0 0 0 160.629 59.267 A 32.944 32.944 0 0 0 161.133 58.301 A 157.138 157.138 0 0 0 161.581 57.397 Q 161.757 57.04 161.913 56.717 A 83.015 83.015 0 0 0 162.207 56.104 A 62.985 62.985 0 0 1 163.488 53.245 Q 164.977 50.147 166.333 48.413 A 10.22 10.22 0 0 1 167.326 47.306 Q 168.753 45.948 170.166 45.948 A 3.74 3.74 0 0 1 171.083 46.055 A 2.882 2.882 0 0 1 172.07 46.509 A 3.938 3.938 0 0 1 173.21 47.8 A 4.671 4.671 0 0 1 173.315 47.998 A 7.701 7.701 0 0 1 173.874 49.5 A 9.025 9.025 0 0 1 173.999 50.049 Q 174.219 51.172 174.219 52.344 Q 174.219 53.207 174.101 55.011 A 118.802 118.802 0 0 1 174.097 55.078 A 138.904 138.904 0 0 1 173.956 57.001 A 170.62 170.62 0 0 1 173.779 59.058 A 404.549 404.549 0 0 0 173.413 63.282 A 251.754 251.754 0 0 1 173.329 64.289 Q 173.208 65.712 173.099 66.763 A 85.426 85.426 0 0 1 173.096 66.797 A 92.616 92.616 0 0 1 173.938 65.106 A 124.703 124.703 0 0 1 174.902 63.257 A 96.816 96.816 0 0 1 177.1 59.351 Q 178.271 57.373 179.565 55.42 A 49.41 49.41 0 0 1 182.275 51.709 A 13.101 13.101 0 0 1 183.341 50.561 Q 183.925 50.007 184.514 49.613 A 6.764 6.764 0 0 1 185.132 49.243 A 7.456 7.456 0 0 1 186.274 48.753 Q 187.088 48.487 187.842 48.487 A 5.477 5.477 0 0 1 189.366 48.686 A 3.895 3.895 0 0 1 191.602 50.342 A 7.198 7.198 0 0 1 192.621 52.855 A 10.163 10.163 0 0 1 192.822 54.932 A 13.825 13.825 0 0 1 192.812 55.446 Q 192.795 55.905 192.749 56.47 A 183.804 183.804 0 0 0 192.676 57.404 A 222.015 222.015 0 0 0 192.603 58.399 Q 192.529 59.424 192.456 60.474 A 30.58 30.58 0 0 0 192.393 61.738 A 25.291 25.291 0 0 0 192.383 62.451 A 20.51 20.51 0 0 0 192.451 64.154 A 18.19 18.19 0 0 0 192.505 64.698 A 8.039 8.039 0 0 0 192.668 65.646 Q 192.785 66.142 192.963 66.564 A 4.959 4.959 0 0 0 192.969 66.577 A 3.23 3.23 0 0 0 193.43 67.356 A 2.752 2.752 0 0 0 193.945 67.847 A 2.281 2.281 0 0 0 194.73 68.209 Q 195.051 68.292 195.428 68.307 A 4.312 4.312 0 0 0 195.605 68.311 A 5.055 5.055 0 0 0 197.941 67.721 A 7.27 7.27 0 0 0 199.219 66.87 A 19.257 19.257 0 0 0 201.892 64.182 A 22.122 22.122 0 0 0 202.466 63.452 A 31.435 31.435 0 0 0 204.844 59.808 A 28.781 28.781 0 0 0 205.054 59.424 A 70.342 70.342 0 0 0 205.686 58.219 Q 206.278 57.059 206.639 56.221 A 18.709 18.709 0 0 0 206.689 56.104 A 1.967 1.967 0 0 1 207.066 55.543 A 1.794 1.794 0 0 1 207.397 55.274 Q 207.861 54.981 208.398 54.981 A 1.827 1.827 0 0 1 209.075 55.102 A 1.66 1.66 0 0 1 209.741 55.591 Q 210.254 56.201 210.254 56.885 A 1.686 1.686 0 0 1 210.15 57.462 A 1.983 1.983 0 0 1 210.107 57.569 A 32.203 32.203 0 0 0 210.003 57.779 Q 209.784 58.226 209.326 59.18 A 25.99 25.99 0 0 1 208.835 60.147 Q 208.383 60.996 207.788 61.988 A 46.249 46.249 0 0 1 206.616 63.835 A 59.404 59.404 0 0 1 205.566 65.357 A 22.481 22.481 0 0 1 202.759 68.604 Q 201.221 70.069 199.438 71.045 A 7.666 7.666 0 0 1 195.703 72.022 A 9.233 9.233 0 0 1 194.231 71.911 Q 193.442 71.784 192.797 71.509 A 4.755 4.755 0 0 1 192.139 71.167 A 6.178 6.178 0 0 1 189.99 68.921 A 9.084 9.084 0 0 1 188.995 66.158 A 10.359 10.359 0 0 1 188.94 65.845 Q 188.672 64.16 188.672 62.451 A 17.57 17.57 0 0 1 188.688 61.722 Q 188.704 61.339 188.736 60.914 A 29.429 29.429 0 0 1 188.745 60.791 A 47.176 47.176 0 0 1 188.869 59.469 A 55.079 55.079 0 0 1 188.94 58.838 A 43.66 43.66 0 0 0 189.136 56.787 Q 189.209 55.762 189.209 54.834 A 7.859 7.859 0 0 0 189.18 54.136 Q 189.091 53.136 188.721 52.71 Q 188.329 52.259 188 52.171 A 0.604 0.604 0 0 0 187.842 52.149 A 1.68 1.68 0 0 0 187.238 52.27 Q 186.747 52.459 186.185 52.942 A 6.58 6.58 0 0 0 186.06 53.052 A 12.724 12.724 0 0 0 185.198 53.914 Q 184.783 54.367 184.354 54.909 A 24.016 24.016 0 0 0 183.96 55.42 A 42.932 42.932 0 0 0 182.709 57.184 A 54.992 54.992 0 0 0 181.714 58.716 A 78.485 78.485 0 0 0 179.565 62.354 A 173.607 173.607 0 0 0 178.601 64.118 A 146.644 146.644 0 0 0 177.71 65.796 Q 176.855 67.432 176.367 68.506 Q 175.529 70.266 174.691 71.037 A 3.084 3.084 0 0 1 174.414 71.265 A 4.01 4.01 0 0 1 173.558 71.746 A 3.049 3.049 0 0 1 172.412 71.973 A 3.803 3.803 0 0 1 171.41 71.848 A 2.802 2.802 0 0 1 170.142 71.118 A 2.784 2.784 0 0 1 169.428 69.854 Q 169.287 69.336 169.287 68.701 A 4.221 4.221 0 0 1 169.292 68.52 Q 169.308 68.141 169.385 67.359 A 234.248 234.248 0 0 1 169.465 66.553 Q 169.501 66.194 169.542 65.798 A 446.074 446.074 0 0 1 169.629 64.966 Q 169.775 63.574 169.922 61.963 A 2315.694 2315.694 0 0 1 170.215 58.765 A 160.53 160.53 0 0 0 170.349 57.233 A 128.07 128.07 0 0 0 170.459 55.811 Q 170.557 54.444 170.557 53.516 A 27.686 27.686 0 0 0 170.492 51.597 A 24.573 24.573 0 0 0 170.459 51.172 A 7.299 7.299 0 0 0 170.409 50.737 Q 170.3 49.998 170.068 49.805 A 0.745 0.745 0 0 0 169.848 49.939 Q 169.395 50.307 168.535 51.592 A 28.325 28.325 0 0 0 168.506 51.636 A 14.065 14.065 0 0 0 167.905 52.638 Q 167.259 53.81 166.452 55.633 A 86.311 86.311 0 0 0 165.645 57.519 A 1.983 1.983 0 0 1 165.625 57.569 A 1.821 1.821 0 0 1 165.547 57.724 A 65.683 65.683 0 0 0 165.52 57.78 Q 165.349 58.126 165.029 58.777 A 920.339 920.339 0 0 0 164.819 59.204 A 31.851 31.851 0 0 1 164.314 60.19 Q 164.025 60.73 163.684 61.326 A 59.1 59.1 0 0 1 163.257 62.061 A 40.346 40.346 0 0 1 162.014 64.026 A 50.273 50.273 0 0 1 161.035 65.43 A 22.31 22.31 0 0 1 158.203 68.653 A 15.449 15.449 0 0 1 154.834 71.07 A 8.057 8.057 0 0 1 151.025 72.022 A 7.323 7.323 0 0 1 148.494 71.598 A 6.5 6.5 0 0 1 146.265 70.215 A 10.286 10.286 0 0 1 143.709 66.384 A 12.381 12.381 0 0 1 143.457 65.674 A 15.95 15.95 0 0 1 141.514 68.307 A 12.903 12.903 0 0 1 139.502 70.093 A 9.832 9.832 0 0 1 137.655 71.144 A 6.951 6.951 0 0 1 134.912 71.729 Q 133.105 71.729 131.641 71.07 Q 130.176 70.41 129.15 69.214 A 8.468 8.468 0 0 1 127.731 66.851 A 9.848 9.848 0 0 1 127.563 66.407 A 10.152 10.152 0 0 1 127.158 64.82 A 50.273 50.273 0 0 1 126.758 65.381 A 24.369 24.369 0 0 1 123.95 68.628 A 14.862 14.862 0 0 1 120.879 70.933 A 13.9 13.9 0 0 1 120.63 71.07 A 7.82 7.82 0 0 1 116.895 72.022 A 8.684 8.684 0 0 1 115.454 71.909 Q 114.178 71.694 113.281 71.07 A 6.595 6.595 0 0 1 111.157 68.653 A 10.006 10.006 0 0 1 110.297 66.263 A 11.869 11.869 0 0 1 110.132 65.381 A 24.199 24.199 0 0 1 109.867 62.294 A 21.987 21.987 0 0 1 109.863 61.865 A 23.977 23.977 0 0 1 109.892 60.719 A 29.23 29.23 0 0 1 109.937 59.986 A 74.548 74.548 0 0 1 110.107 58.008 A 144.013 144.013 0 0 0 110.199 57.062 A 117.663 117.663 0 0 0 110.278 56.177 A 24.409 24.409 0 0 0 110.323 55.574 Q 110.337 55.338 110.344 55.129 A 11.531 11.531 0 0 0 110.352 54.737 Q 110.352 53.223 109.937 52.686 Q 109.521 52.149 108.984 52.149 A 1.68 1.68 0 0 0 108.381 52.27 Q 107.89 52.459 107.327 52.942 A 6.58 6.58 0 0 0 107.202 53.052 A 12.724 12.724 0 0 0 106.34 53.914 Q 105.926 54.367 105.496 54.909 A 24.016 24.016 0 0 0 105.103 55.42 A 34.871 34.871 0 0 0 103.867 57.184 A 43.898 43.898 0 0 0 102.905 58.716 A 174.17 174.17 0 0 0 100.781 62.354 Q 99.756 64.16 98.926 65.796 A 824.428 824.428 0 0 0 98.529 66.579 Q 97.961 67.7 97.559 68.506 A 13.48 13.48 0 0 1 96.98 69.553 Q 96.238 70.756 95.483 71.265 A 5.564 5.564 0 0 1 94.849 71.638 Q 94.174 71.973 93.604 71.973 Q 92.105 71.973 91.3 70.8 A 3.293 3.293 0 0 1 91.284 70.777 Q 90.479 69.58 90.479 67.871 L 90.479 64.795 A 6502.397 6502.397 0 0 1 90.479 63.428 A 46.249 46.249 0 0 1 90.21 63.835 A 59.404 59.404 0 0 1 89.16 65.357 A 22.481 22.481 0 0 1 86.353 68.604 Q 84.814 70.069 83.032 71.045 A 7.666 7.666 0 0 1 79.297 72.022 A 9.233 9.233 0 0 1 77.825 71.911 Q 77.036 71.784 76.39 71.509 A 4.755 4.755 0 0 1 75.732 71.167 A 6.178 6.178 0 0 1 73.584 68.921 A 9.084 9.084 0 0 1 72.589 66.158 A 10.359 10.359 0 0 1 72.534 65.845 Q 72.266 64.16 72.266 62.451 A 17.57 17.57 0 0 1 72.282 61.722 Q 72.298 61.339 72.329 60.914 A 29.429 29.429 0 0 1 72.339 60.791 A 47.176 47.176 0 0 1 72.463 59.469 A 55.079 55.079 0 0 1 72.534 58.838 A 43.66 43.66 0 0 0 72.729 56.787 Q 72.803 55.762 72.803 54.834 A 7.859 7.859 0 0 0 72.774 54.136 Q 72.684 53.136 72.314 52.71 Q 71.922 52.259 71.593 52.171 A 0.604 0.604 0 0 0 71.436 52.149 A 1.68 1.68 0 0 0 70.832 52.27 Q 70.341 52.459 69.779 52.942 A 6.58 6.58 0 0 0 69.653 53.052 A 12.724 12.724 0 0 0 68.791 53.914 Q 68.377 54.367 67.947 54.909 A 24.016 24.016 0 0 0 67.554 55.42 A 42.932 42.932 0 0 0 66.302 57.184 A 54.992 54.992 0 0 0 65.308 58.716 A 78.485 78.485 0 0 0 63.159 62.354 A 173.607 173.607 0 0 0 62.195 64.118 A 146.644 146.644 0 0 0 61.304 65.796 Q 60.449 67.432 59.961 68.506 Q 59.123 70.266 58.285 71.037 A 3.084 3.084 0 0 1 58.008 71.265 A 4.01 4.01 0 0 1 57.152 71.746 A 3.049 3.049 0 0 1 56.006 71.973 A 3.803 3.803 0 0 1 55.004 71.848 A 2.802 2.802 0 0 1 53.735 71.118 A 2.784 2.784 0 0 1 53.022 69.854 Q 52.881 69.336 52.881 68.701 A 4.221 4.221 0 0 1 52.886 68.52 Q 52.902 68.141 52.979 67.359 A 234.248 234.248 0 0 1 53.059 66.553 Q 53.095 66.194 53.136 65.798 A 446.074 446.074 0 0 1 53.223 64.966 Q 53.369 63.574 53.516 61.963 A 2315.694 2315.694 0 0 1 53.809 58.765 A 160.53 160.53 0 0 0 53.943 57.233 A 128.07 128.07 0 0 0 54.053 55.811 Q 54.15 54.444 54.15 53.516 A 27.686 27.686 0 0 0 54.086 51.597 A 24.573 24.573 0 0 0 54.053 51.172 A 7.299 7.299 0 0 0 54.003 50.737 Q 53.893 49.998 53.662 49.805 A 0.745 0.745 0 0 0 53.442 49.939 Q 52.989 50.307 52.129 51.592 A 28.325 28.325 0 0 0 52.1 51.636 A 14.065 14.065 0 0 0 51.498 52.638 Q 50.853 53.81 50.045 55.633 A 86.311 86.311 0 0 0 49.275 57.433 A 1.444 1.444 0 0 1 49.199 57.611 A 1.821 1.821 0 0 1 49.122 57.757 A 120.518 120.518 0 0 1 48.689 58.577 Q 48.254 59.394 47.705 60.401 Q 46.826 62.012 45.703 63.721 A 45.815 45.815 0 0 1 43.237 67.115 A 24.386 24.386 0 0 1 40.663 69.887 A 22.341 22.341 0 0 1 40.381 70.142 A 15.182 15.182 0 0 1 38.053 71.853 A 13.449 13.449 0 0 1 37.207 72.315 A 7.812 7.812 0 0 1 35.007 73.047 A 7.019 7.019 0 0 1 33.838 73.145 A 8.808 8.808 0 0 1 31.782 72.915 A 7.029 7.029 0 0 1 29.98 72.217 Q 28.32 71.289 27.173 69.727 A 10.239 10.239 0 0 1 25.849 67.252 A 12.594 12.594 0 0 1 25.464 66.04 A 17.067 17.067 0 0 1 25.005 63.517 A 58.183 58.183 0 0 1 25 63.526 Z M 3.711 38.037 A 121.998 121.998 0 0 0 3.793 42.588 A 108.129 108.129 0 0 0 3.857 44.043 Q 4.004 46.924 4.248 49.561 A 106.366 106.366 0 0 0 7.214 43.34 A 120.375 120.375 0 0 0 8.154 41.138 A 103.429 103.429 0 0 0 11.426 32.105 Q 12.842 27.539 13.696 23.023 A 49.23 49.23 0 0 0 14.45 17.273 A 41.551 41.551 0 0 0 14.551 14.405 Q 14.551 9.972 14.002 7.476 A 9.91 9.91 0 0 0 13.623 6.153 A 7.386 7.386 0 0 0 13.187 5.182 Q 12.571 4.058 11.743 3.766 A 1.815 1.815 0 0 0 11.133 3.662 Q 10.143 3.662 9.222 4.981 A 6.608 6.608 0 0 0 9.155 5.078 A 11.087 11.087 0 0 0 8.472 6.257 Q 8.15 6.895 7.842 7.663 A 25.597 25.597 0 0 0 7.373 8.936 A 38.309 38.309 0 0 0 6.675 11.24 Q 6.244 12.83 5.859 14.698 A 82.5 82.5 0 0 0 5.091 19.039 A 99.273 99.273 0 0 0 4.712 21.826 A 137.207 137.207 0 0 0 4.126 27.732 A 154.776 154.776 0 0 0 3.979 29.785 A 127.769 127.769 0 0 0 3.711 38.037 Z M 94.189 49.024 Q 96.24 44.532 97.925 40.259 A 88.999 88.999 0 0 0 100.806 31.739 Q 102.002 27.49 102.686 23.12 A 58.113 58.113 0 0 0 103.358 15.192 A 64.694 64.694 0 0 0 103.369 14.014 Q 103.369 13.262 103.301 11.65 A 168.917 168.917 0 0 0 103.296 11.524 A 21.494 21.494 0 0 0 102.856 8.057 A 11.761 11.761 0 0 0 102.362 6.325 A 9.14 9.14 0 0 0 101.733 4.981 A 3.048 3.048 0 0 0 101.186 4.271 A 2.216 2.216 0 0 0 99.609 3.662 A 1.616 1.616 0 0 0 98.565 4.057 Q 98.311 4.265 98.08 4.582 A 4.614 4.614 0 0 0 97.754 5.103 A 10.549 10.549 0 0 0 97.218 6.271 Q 96.99 6.85 96.782 7.535 A 24.982 24.982 0 0 0 96.387 9.009 A 41.126 41.126 0 0 0 95.911 11.321 Q 95.63 12.906 95.41 14.746 Q 95.02 18.018 94.775 21.68 A 215.606 215.606 0 0 0 94.409 29.199 Q 94.287 33.057 94.238 36.695 A 563.626 563.626 0 0 0 94.202 40.216 A 459.374 459.374 0 0 0 94.189 43.506 L 94.189 49.024 Z M 32.335 34.909 A 4.469 4.469 0 0 1 31.519 36.011 A 4.28 4.28 0 0 1 28.427 37.305 A 5.282 5.282 0 0 1 28.369 37.305 A 4.376 4.376 0 0 1 26.322 36.828 A 4.469 4.469 0 0 1 25.22 36.011 A 4.28 4.28 0 0 1 23.926 32.919 A 5.282 5.282 0 0 1 23.926 32.862 Q 23.926 31.934 24.268 31.128 Q 24.609 30.323 25.22 29.712 Q 25.83 29.102 26.636 28.76 A 4.374 4.374 0 0 1 28.297 28.419 A 4.997 4.997 0 0 1 28.369 28.418 Q 29.297 28.418 30.103 28.76 Q 30.908 29.102 31.519 29.712 Q 32.129 30.323 32.471 31.128 A 4.374 4.374 0 0 1 32.812 32.789 A 4.997 4.997 0 0 1 32.813 32.862 A 4.376 4.376 0 0 1 32.335 34.909 Z M 30.078 32.862 A 1.631 1.631 0 0 0 29.598 31.699 A 2.141 2.141 0 0 0 29.565 31.665 A 1.787 1.787 0 0 0 29.038 31.293 A 1.606 1.606 0 0 0 28.369 31.153 Q 27.686 31.153 27.197 31.665 A 1.68 1.68 0 0 0 26.709 32.862 A 1.596 1.596 0 0 0 27.182 34.018 A 1.96 1.96 0 0 0 27.197 34.033 Q 27.686 34.522 28.369 34.522 A 1.68 1.68 0 0 0 29.565 34.033 A 1.66 1.66 0 0 0 29.95 33.496 A 1.566 1.566 0 0 0 30.078 32.862 Z"></path>
  </g>
  </svg>