<svg xmlns="http://www.w3.org/2000/svg" viewBox="0 0 1080 1920" width="1080" height="1920">
	<title>LinHan @ LinHan</title>
		<style>
			@keyframes grow{0%{stroke-dashoffset:1px;stroke-dasharray:0 350px;opacity:0}10%{opacity:1;transform:translate(0,1%)}20%{transform:translate(0,0)}40%,85%{stroke-dasharray:350px 0}95%{stroke-dasharray:0 350px}}@media (prefers-reduced-motion){path{animation:none!important;stroke-dasharray:unset!important}}path{stroke-dashoffset:1px;stroke-dasharray:350px 0;animation:grow 10s ease forwards infinite;transform-origin:center;stroke:#303030;animation-delay:0s}@media (prefers-color-scheme:dark){path{stroke:#fdfdfd}}
		</style>
		<path 
			stroke="#fff" fill="#fff" stroke-linecap="round" stroke-linejoin="round" stroke-width="3.5" 
			d="
			M239,654c0.48,0.09 -1,4 -1,4c0,0 -2.97,4.84 -3,5c-0.03,0.16 -1.58,7.52 -2,8c-0.42,0.48 -1,14 -1,14v21l3,20l2,16l3,16l5,25l5,25l5,27l9,40l9,43c0,0 9.23,47.52 9,48c-0.23,0.48 9.03,42.59 9,43c-0.03,0.41 12,70 12,70l7,48l8,54l6,49l4,40l5,45l4,47l3,26l2,11l4,9l6,6l9,6c0,0 9.29,1.82 9,2c-0.29,0.18 9,-2 9,-2c0,0 6.24,-1.86 6,-2c-0.24,-0.14 6,-5 6,-5l5,-6l3,-8c0,0 -0.41,-7 0,-7c0.41,0 1,-16 1,-16l1,-21l1,-22v-22l3,-30l1,-22l3,-25l3,-19l4,-20l3,-12l2,-14l4,-14l3,-11l5,-13l3,-9l2,-5l2,4l5,13l3,13l6,21l7,22l5,16l7,18l4,11l5,9l4,6l5,8l6,7l6,7l8,5l8,4l8,2c0,0 13,-0.18 13,0c0,0.18 7,-1 7,-1l9,-4c0,0 6.71,-5.9 7,-6c0.29,-0.1 9,-10 9,-10c0,0 4.55,-12.27 5,-12c0.45,0.27 5.77,-15.29 6,-15c0.23,0.29 4,-12 4,-12l3,-14l3,-12l3,-15l3,-12l3,-12l2,-8l2,-7l2,-4l3,3c0,0 9.02,15.83 9,16c-0.02,0.17 5,12 5,12l6,13l4,11l3,6l4,7l3,8c0,0 3.98,5.23 4,5c0.02,-0.23 4,7 4,7l5,6l5,4c0,0 6.49,4.08 6,4c-0.49,-0.08 5,3 5,3l7,2l9,1l9,-2c0,0 7.26,-2.31 7,-2c-0.26,0.31 6,-4 6,-4l6,-8l4,-6c0,0 3.65,-12.38 4,-12c0.35,0.38 1.62,-10.11 2,-10c0.38,0.11 1,-14 1,-14l1,-25v-27v-27v-24v-19v-19v-17c0,0 -0.04,-20.73 0,-21c0.04,-0.27 1,-24 1,-24l-1,-26l1,-14v-15l1,-12c0,0 2.07,-11.77 2,-12c-0.07,-0.23 0,-9 0,-9l1,-7v-4l3,13l2,13l3,19l3,16l3,14l3,17l3,16l4,21l5,22l5,20l2,12l4,14l3,13l5,16l3,12l4,10l3,10l4,11l4,9l7,7l3,3l5,3l7,4l9,-1h6l6,-4l5,-4l4,-6l3,-7v-5l1,-4l5,4l6,5l6,5l9,5l11,3l11,2h6l12,-1l10,-4l9,-6l9,-4l7,-7l7,-8l8,-13l7,-15l5,-15l2,-14l1,-11v-11l-1,-9l-1,-8l-2,-11l-2,-9l-2,-7l-4,-7l-5,-10l-7,-9l-6,-6l-8,-7l-8,-4l-7,-3c0,0 -7.88,-1.65 -8,-2c-0.12,-0.35 -11.38,-2.15 -11,-2c0.38,0.15 -10,0 -10,0c0,0 -11.45,1.62 -11,2c0.45,0.38 -9,3 -9,3l-11,4l-10,7l-14,11c0,0 -7.14,8.78 -7,9c0.14,0.22 -7.92,9.82 -8,10c-0.08,0.18 -5.34,9.92 -5,10c0.34,0.08 -4,10 -4,10c0,0 -1.8,6.61 -2,7c-0.2,0.39 -1,6 -1,6l36,55c0,0 0.62,-11.98 1,-12c0.38,-0.02 1,-10 1,-10l2,-11l4,-11l4,-11c0,0 5.16,-7.77 5,-8c-0.16,-0.23 8.1,-10.38 8,-10c-0.1,0.38 7,-4 7,-4l8,-5l6,-1l6,1l4,1l3,4l4,4c0,0 4.37,6.35 4,7c-0.37,0.65 3,8 3,8l1,8c0,0 1.35,7.47 1,8c-0.35,0.53 0.01,11.39 0,11c-0.01,-0.39 0,8 0,8l-3,7c0,0 -2.7,8.81 -3,9c-0.3,0.19 -6,8 -6,8l-6,6l-6,4l-6,1h-9l-7,-1l-7,-2l-5,-3l-7,-3l-4,-3l-5,1l-35,-55l-2,-5l-3,-11l-4,-18l-4,-17l-3,-13l-2,-12l-2,-13c0,0 -4.09,-17.13 -4,-17c0.09,0.13 -4,-20 -4,-20l-3,-16l-3,-16l-3,-15l-2,-13l-3,-11l-3,-13l-3,-10l-3,-10l-3,-8l-3,-7c0,0 -2.64,-7.11 -3,-7c-0.36,0.11 -5,-6 -5,-6l-6,-5l-6,-3l-7,-2h-7l-7,2l-7,3c0,0 -7.4,6.39 -7,7c0.4,0.61 -6,11 -6,11l-4,12l-4,12l-4,16l-3,21l-3,19l-2,24l-2,27l-1,29l-2,38v26v25l-1,25l-1,32v22v12v7l-3,-5l-3,-8l-2,-5l-4,-6l-3,-6l-4,-8l-5,-7l-5,-6l-4,-5l-6,-5l-5,-4l-6,-4l-6,-4l-6,-1l-4,-2h-7l-7,-1l-6,2c0,0 -5.81,3.12 -6,3c-0.19,-0.12 -4.59,3.25 -5,3c-0.41,-0.25 -7,5 -7,5l-4,5l-5,8l-4,6l-3,7l-4,10l-3,10l-2,9l-3,11l-3,11l-3,12l-2,9l-3,14l-2,5l-2,7l-3,-7l-5,-11l-5,-13l-4,-11l-3,-12l-4,-9l-6,-19l-4,-13l-5,-13l-5,-14l-4,-7c0,0 -3.98,-8.15 -4,-8c-0.02,0.15 -5,-7 -5,-7l-6,-5l-6,-6l-7,-3c0,0 -6.78,-2.26 -7,-2c-0.22,0.26 -6,-1 -6,-1c0,0 -5.94,-0.34 -6,0c-0.06,0.34 -6,2 -6,2c0,0 -7.21,2.13 -7,2c0.21,-0.12 -7.9,4.38 -8,5c-0.1,0.62 -6,5 -6,5l-5,6c0,0 -5.32,5.94 -5,6c0.32,0.06 -2.62,6.34 -3,6c-0.38,-0.34 -6,9 -6,9l-3,7l-3,9l-3,10l-3,7l-2,7l-1,7c0,0 -0.83,2.69 -1,3c-0.17,0.31 -4,-20 -4,-20l-3,-24l-3,-19l-6,-30l-4,-29l-5,-26l-7,-33l-6,-27c0,0 -5.41,-19.57 -5,-20c0.41,-0.43 -6,-27 -6,-27l-6,-28l-7,-25l-8,-32c0,0 -6.24,-21.04 -6,-21c0.24,0.04 -6,-23 -6,-23l-4,-18l-6,-19l-4,-13l-4,-11l-6,-13l-4,-10l-5,-8l-6,-6l-5,-4l-6,-2c0,0 -3.48,-2.09 -3,-2z" 
		/>
</svg> 