<svg width="687" height="690" viewBox="0 0 687 690" fill="none" xmlns="http://www.w3.org/2000/svg">
<path d="M29.6213 1C34.5129 72.0142 31.1308 212.211 29.6213 251C27.7345 299.487 27.3145 403.953 16.8335 518C8.44869 609.237 10.5 598.598 4 644.402C0.263286 670.734 11.9697 704.885 30.8484 675.885C49.7271 646.885 64.6486 576.867 81 505.5C90.7376 463 87.6192 470.569 106 418C120.86 375.5 140 370.5 151.492 442.465L171.709 597.754L178.978 665.982C186.439 676.361 205.406 686.576 221.587 644.402C237.769 602.228 260.581 472.721 269.965 450.822C277 422.474 301.717 407.525 308.141 442.465C323.5 525.995 324.555 572.307 327 587.515C328.956 599.681 333.634 657.012 335.54 660.821C344.648 669.143 365.244 676.13 374.762 637.5C384.28 598.87 423.445 357.061 441.838 261.277C445.464 247.664 467.427 88.4877 470.499 84.6927C474.339 79.949 490.873 61.5353 503.5 96C514.594 126.281 464.338 550.081 478 644.402C487 653.581 495.519 637.865 503.5 587.515C509.318 550.808 512.568 535.5 519 518C525.432 500.5 557.5 465.416 582.5 460.5C615 454.109 652.5 474.47 652.5 474.47C652.5 474.47 692.466 513 682.5 568C672.534 623 635.5 644.402 635.5 644.402C635.5 644.402 596.624 657.631 560.5 644.402C542.907 637.959 522.459 608.02 519 597.754" stroke="white" stroke-width="5"/>
</svg>
